<?xml version="1.0" encoding="UTF-8" standalone="no"?>
<!DOCTYPE svg PUBLIC "-//W3C//DTD SVG 1.1//EN" "http://www.w3.org/Graphics/SVG/1.1/DTD/svg11.dtd">
<svg width="100%" height="100%" viewBox="0 0 400 400" version="1.1" xmlns="http://www.w3.org/2000/svg" xmlns:xlink="http://www.w3.org/1999/xlink" xml:space="preserve" xmlns:serif="http://www.serif.com/" style="fill-rule:evenodd;clip-rule:evenodd;stroke-linejoin:round;stroke-miterlimit:2;">
    <g transform="matrix(0.414976,0,0,0.414976,-198.377,-24.0869)">
        <g transform="matrix(1,0,0,1,38.3374,-115.012)">
            <circle cx="921.663" cy="655.012" r="481.956" style="fill:rgb(0,21,255);"/>
        </g>
        <g transform="matrix(0.887175,0,0,0.887175,142.324,-61.1107)">
            <circle cx="921.663" cy="655.012" r="481.956" style="fill:rgb(0,17,205);"/>
        </g>
        <g transform="matrix(0.779221,0,0,0.779221,241.821,49.6009)">
            <circle cx="921.663" cy="655.012" r="481.956" style="fill:rgb(0,14,172);"/>
        </g>
        <g transform="matrix(0.680195,0,0,0.680195,353.09,94.4641)">
            <circle cx="921.663" cy="655.012" r="481.956" style="fill:rgb(0,12,145);"/>
        </g>
        <g transform="matrix(0.579545,0,0,0.579545,425.855,140.391)">
            <circle cx="921.663" cy="655.012" r="481.956" style="fill:rgb(0,9,107);"/>
        </g>
        <g transform="matrix(0.488636,0,0,0.488636,529.642,219.937)">
            <circle cx="921.663" cy="655.012" r="481.956" style="fill:rgb(0,6,76);"/>
        </g>
        <g transform="matrix(0.891736,0,0,0.891736,180.891,-3.00607)">
            <circle cx="695.55" cy="804.45" r="28.949" style="fill:rgb(0,14,172);"/>
        </g>
        <g transform="matrix(1.58891,0,0,1.58891,-347.21,-464.345)">
            <circle cx="695.55" cy="804.45" r="28.949" style="fill:rgb(0,12,145);"/>
        </g>
        <g transform="matrix(1.58891,0,0,1.58891,-416.675,-528.178)">
            <circle cx="695.55" cy="804.45" r="28.949" style="fill:rgb(0,14,172);"/>
        </g>
        <g transform="matrix(0.794456,0,0,0.794456,251.371,53.1913)">
            <circle cx="695.55" cy="804.45" r="28.949" style="fill:rgb(0,17,205);"/>
        </g>
        <g transform="matrix(0.907949,0,0,0.907949,171.022,-68.1474)">
            <circle cx="695.55" cy="804.45" r="28.949" style="fill:rgb(0,21,255);"/>
        </g>
        <g transform="matrix(0.595096,0,0,0.595096,440.703,131.451)">
            <circle cx="695.55" cy="804.45" r="28.949" style="fill:rgb(0,21,255);"/>
        </g>
        <g transform="matrix(0.49921,0,0,0.49921,490.17,205.811)">
            <circle cx="695.55" cy="804.45" r="28.949" style="fill:rgb(0,12,145);"/>
        </g>
        <g transform="matrix(0.737709,0,0,0.737709,313.839,34.5715)">
            <circle cx="695.55" cy="804.45" r="28.949" style="fill:rgb(0,14,172);"/>
        </g>
        <g transform="matrix(1.54027,0,0,1.54027,-427.432,-468.456)">
            <circle cx="695.55" cy="804.45" r="28.949" style="fill:rgb(0,21,255);"/>
        </g>
        <g transform="matrix(1.54027,0,0,1.54027,-393.843,-479.193)">
            <circle cx="695.55" cy="804.45" r="28.949" style="fill:rgb(0,12,145);"/>
        </g>
        <g transform="matrix(0.49921,0,0,0.49921,484.42,260.044)">
            <circle cx="695.55" cy="804.45" r="28.949" style="fill:rgb(0,12,145);"/>
        </g>
        <g transform="matrix(0.374015,0,0,0.374015,604.103,291.089)">
            <circle cx="695.55" cy="804.45" r="28.949" style="fill:rgb(0,12,145);"/>
        </g>
        <g transform="matrix(0.285759,0,0,0.285759,649.549,398.142)">
            <circle cx="695.55" cy="804.45" r="28.949" style="fill:rgb(0,14,172);"/>
        </g>
        <g transform="matrix(0.374015,0,0,0.374015,605.303,281.246)">
            <circle cx="695.55" cy="804.45" r="28.949" style="fill:rgb(0,14,172);"/>
        </g>
        <g transform="matrix(0.256077,0,0,0.256077,693.735,396.762)">
            <circle cx="695.55" cy="804.45" r="28.949" style="fill:rgb(0,14,172);"/>
        </g>
        <g transform="matrix(0.249605,0,0,0.249605,546.837,459.153)">
            <circle cx="695.55" cy="804.45" r="28.949" style="fill:rgb(0,17,205);"/>
        </g>
        <g transform="matrix(0.19186,0,0,0.19186,762.776,409.292)">
            <circle cx="695.55" cy="804.45" r="28.949" style="fill:rgb(0,14,172);"/>
        </g>
        <g transform="matrix(0.19186,0,0,0.19186,759.507,401.294)">
            <circle cx="695.55" cy="804.45" r="28.949" style="fill:rgb(0,12,145);"/>
        </g>
        <g transform="matrix(0.276279,0,0,0.276279,698.345,346.936)">
            <circle cx="695.55" cy="804.45" r="28.949" style="fill:rgb(0,12,145);"/>
        </g>
        <g transform="matrix(0.249605,0,0,0.249605,701.464,391.171)">
            <circle cx="695.55" cy="804.45" r="28.949" style="fill:rgb(0,17,205);"/>
        </g>
        <g transform="matrix(0.149168,0,0,0.149168,796.789,433.32)">
            <circle cx="695.55" cy="804.45" r="28.949" style="fill:rgb(0,17,205);"/>
        </g>
        <g transform="matrix(0.249605,0,0,0.249605,707.062,379.485)">
            <circle cx="695.55" cy="804.45" r="28.949" style="fill:rgb(0,9,107);"/>
        </g>
        <g transform="matrix(0.249605,0,0,0.249605,705.65,367.622)">
            <circle cx="695.55" cy="804.45" r="28.949" style="fill:rgb(0,21,255);"/>
        </g>
        <g transform="matrix(0.374015,0,0,0.374015,591.7,391.415)">
            <circle cx="695.55" cy="804.45" r="28.949" style="fill:rgb(0,17,205);"/>
        </g>
        <g transform="matrix(0.150792,0,0,0.150792,738.365,461.262)">
            <circle cx="695.55" cy="804.45" r="28.949" style="fill:rgb(0,17,205);"/>
        </g>
        <g transform="matrix(0.907949,0,0,0.907949,99.2633,63.2722)">
            <circle cx="695.55" cy="804.45" r="28.949" style="fill:rgb(0,21,255);"/>
        </g>
        <g transform="matrix(1.54027,0,0,1.54027,-304.975,-498.906)">
            <circle cx="695.55" cy="804.45" r="28.949" style="fill:rgb(0,17,205);"/>
        </g>
        <g transform="matrix(2.40387,0,0,2.40387,-630.651,-1324.2)">
            <circle cx="695.55" cy="804.45" r="28.949" style="fill:rgb(0,17,205);"/>
        </g>
        <g transform="matrix(2.40387,0,0,2.40387,-640.423,-1328.2)">
            <circle cx="695.55" cy="804.45" r="28.949" style="fill:rgb(0,6,76);"/>
        </g>
        <g transform="matrix(1.19979,0,0,1.19979,-122.289,-215.149)">
            <circle cx="695.55" cy="804.45" r="28.949" style="fill:rgb(0,14,172);"/>
        </g>
        <g transform="matrix(1.0863,0,0,1.0863,15.5258,-190.028)">
            <circle cx="695.55" cy="804.45" r="28.949" style="fill:rgb(0,14,172);"/>
        </g>
        <g transform="matrix(0.599895,0,0,0.599895,382.57,284.802)">
            <circle cx="695.55" cy="804.45" r="28.949" style="fill:rgb(0,14,172);"/>
        </g>
        <g transform="matrix(1.19979,0,0,1.19979,-111.289,-249.882)">
            <circle cx="695.55" cy="804.45" r="28.949" style="fill:rgb(0,17,205);"/>
        </g>
        <g transform="matrix(1,0,0,1,-1.5,0.75)">
            <path d="M674.766,836.127C682.484,822.815 696.888,813.854 713.369,813.854C737.978,813.854 757.958,833.834 757.958,858.443C757.958,869.995 753.555,880.526 746.339,888.449C720.862,873.196 696.909,855.658 674.766,836.127Z" style="fill:rgb(0,9,107);"/>
        </g>
        <g transform="matrix(0.616286,0.555404,-0.555404,0.616286,621.194,-420.518)">
            <path d="M1026.43,582.128L1026.43,459.829L1023.68,441.764L1023.68,399.703L1027.07,386.43L1035.86,369.703L1044.66,386.43L1048.05,399.703L1048.05,441.764L1045.3,459.829L1045.3,582.128L1050.16,612.132L1050.16,618.934L1045.3,627.092L1045.3,632.969L1041.86,635.369L1044.3,643.64L1027.43,643.64L1029.87,635.369L1026.43,632.969L1026.43,627.092L1021.57,618.934L1021.57,612.132L1026.43,582.128Z" style="fill:rgb(0,14,172);"/>
        </g>
        <g transform="matrix(1,-0.000407177,0.000407177,1,-4.0184,-0.782412)">
            <path d="M636.598,796.093C642.183,774.726 661.632,758.94 684.738,758.94C712.197,758.94 734.49,781.233 734.49,808.691C734.49,831.29 719.39,850.389 698.737,856.443C671.697,836.182 652.022,816.475 636.598,796.093Z" style="fill:rgb(0,17,205);"/>
        </g>
    </g>
</svg>
